<?xml version="1.0" encoding="utf-8"?>
<!-- Generator: Adobe Illustrator 26.0.0, SVG Export Plug-In . SVG Version: 6.00 Build 0)  -->
<svg version="1.1" id="Capa_1" xmlns="http://www.w3.org/2000/svg" xmlns:xlink="http://www.w3.org/1999/xlink" x="0px" y="0px"
	 viewBox="0 0 264.13 130.83" style="enable-background:new 0 0 264.13 130.83;" xml:space="preserve">
<style type="text/css">
	.st0{fill:#BED998;}
	.st1{fill:none;}
	.st2{fill:#FFFFFF;}
</style>
<path class="st0" d="M119.87,290.62L119.87,290.62l-0.01-0.83C119.86,290.08,119.86,290.35,119.87,290.62z"/>
<line class="st1" x1="118.79" y1="397.76" x2="118.79" y2="385.79"/>
<path class="st2" d="M122.34,63.9c0,30.66-24.84,55.5-55.48,55.5c-9.51,0-18.47-2.39-26.29-6.61c-2.41-1.3-4.7-2.76-6.88-4.39V39.98
	c0-3.8,3.08-6.88,6.88-6.88v72.16c7.59,4.83,16.61,7.64,26.29,7.64c27.06,0,48.98-21.93,48.98-49v-0.49h6.49
	C122.34,63.58,122.34,63.73,122.34,63.9z"/>
<path class="st2" d="M121.85,56.52H77.96v7.6h19.36c3.8,0,6.88,3.08,6.88,6.88v11.92c0,3.8-3.08,6.88-6.88,6.88h-35.8v-6.88h35.8
	V71.01H77.96c-3.8,0-6.88-3.08-6.88-6.88v-7.6c0-3.8,3.08-6.88,6.88-6.88h35.77c-6.1-20.1-24.78-34.72-46.87-34.72
	c-27.07,0-49,21.93-49,48.98c0,10.53,3.31,20.27,8.95,28.25v10.18c-9.56-9.97-15.45-23.51-15.45-38.43
	c0-30.64,24.84-55.48,55.5-55.48C95,8.42,118.25,29.37,121.85,56.52z"/>
<polygon class="st2" points="68.39,33.1 68.39,77.6 61.51,77.6 61.51,56.5 42.71,56.5 42.71,49.62 61.51,49.62 61.51,33.1 "/>
<g>
	<polygon class="st2" points="143.75,44.85 131.25,44.85 131.25,36.25 128.14,36.25 128.14,46.25 146.86,46.25 146.86,36.25 
		143.75,36.25 	"/>
	<path class="st2" d="M170.94,38.92c-1.04-0.92-2.27-1.63-3.67-2.14c-1.4-0.51-2.93-0.76-4.58-0.76c-1.68,0-3.23,0.26-4.63,0.77
		c-1.41,0.52-2.63,1.24-3.67,2.16c-1.03,0.92-1.84,2-2.42,3.24c-0.58,1.24-0.87,2.59-0.87,4.06h3.11c0-1.11,0.21-2.13,0.63-3.06
		c0.43-0.93,1.02-1.75,1.79-2.45c0.77-0.69,1.66-1.23,2.69-1.61c1.03-0.38,2.15-0.57,3.38-0.57c1.2,0,2.31,0.19,3.34,0.57
		c1.03,0.38,1.92,0.92,2.67,1.61c0.76,0.7,1.35,1.51,1.77,2.45c0.43,0.93,0.64,1.95,0.64,3.06h3.1c0-1.49-0.28-2.85-0.85-4.09
		C172.79,40.92,171.98,39.85,170.94,38.92z"/>
	<rect x="178.45" y="36.25" class="st2" width="3.11" height="10"/>
	<polygon class="st2" points="205.75,39.15 209.14,46.25 212.25,46.25 207.3,36.25 204.22,36.25 199.29,46.25 202.35,46.25 	"/>
</g>
<g>
	<polygon class="st2" points="128.14,56.26 131.25,56.26 131.25,47.34 143.75,47.34 143.75,56.26 146.86,56.26 146.86,46.25 
		128.14,46.25 	"/>
	<path class="st2" d="M170.47,49.31c-0.42,0.93-1.02,1.75-1.77,2.44c-0.76,0.7-1.64,1.24-2.67,1.62c-1.03,0.38-2.14,0.57-3.34,0.57
		c-1.22,0-2.35-0.19-3.38-0.57c-1.03-0.38-1.92-0.92-2.69-1.62c-0.77-0.69-1.36-1.51-1.79-2.44c-0.42-0.93-0.63-1.95-0.63-3.06
		h-3.11c0,1.47,0.29,2.82,0.87,4.06c0.58,1.24,1.39,2.32,2.42,3.24c1.04,0.92,2.27,1.64,3.69,2.16c1.42,0.52,2.95,0.78,4.62,0.78
		c1.66,0,3.19-0.25,4.58-0.76c1.4-0.51,2.63-1.22,3.67-2.14c1.04-0.92,1.85-2.01,2.42-3.24s0.85-2.6,0.85-4.09h-3.1
		C171.11,47.36,170.9,48.37,170.47,49.31z"/>
	<polygon class="st2" points="181.56,46.25 178.45,46.25 178.45,56.26 193.34,56.26 193.34,53.77 181.56,53.77 	"/>
	<polygon class="st2" points="212.25,46.25 209.14,46.25 210.44,48.97 201.05,48.97 202.35,46.25 199.29,46.25 194.36,56.26 
		197.57,56.26 199.96,51.25 211.53,51.25 213.92,56.26 217.19,56.26 	"/>
</g>
<g>
	<polygon class="st2" points="166.08,82.57 166.08,107.18 178.48,107.18 178.48,82.57 178.48,64.26 166.08,64.26 	"/>
	<path class="st2" d="M244.54,64.26v18.31v4.86c0,3.28-0.5,5.59-1.5,6.97c-1,1.36-2.38,2.05-4.13,2.05c-1.72,0-3.08-0.69-4.1-2.05
		c-1.02-1.37-1.52-3.69-1.52-6.97v-4.86V64.26h-12.41v18.31v5.3c0,6.42,1.58,11.41,4.73,14.96c3.15,3.56,7.55,5.33,13.19,5.33
		c5.63,0,10.03-1.78,13.18-5.33c3.16-3.56,4.73-8.55,4.73-14.96v-5.3V64.26H244.54z"/>
	<path class="st2" d="M157.28,84.37c-0.91-0.7-1.88-1.31-2.91-1.8c-0.35-0.17-0.7-0.32-1.06-0.47c-1.44-0.57-2.88-1.02-4.34-1.34
		c-1.45-0.32-2.78-0.63-3.99-0.92c-1.21-0.29-2.18-0.64-2.92-1.07c-0.73-0.43-1.1-1.01-1.1-1.75c0-0.49,0.15-0.94,0.44-1.34
		c0.3-0.41,0.8-0.74,1.5-0.98s1.65-0.37,2.84-0.37c1.61,0,3.27,0.27,4.97,0.8c1.69,0.53,3.46,1.33,5.28,2.39l3.73-10.49
		c-1.93-1.26-4.1-2.21-6.52-2.82c-2.42-0.61-4.87-0.92-7.36-0.92c-3.78,0-6.94,0.65-9.48,1.96c-2.54,1.31-4.45,3.06-5.73,5.24
		c-1.28,2.18-1.92,4.61-1.92,7.26c0,1.86,0.24,3.47,0.73,4.82c0.11,0.32,0.23,0.62,0.38,0.91c0.73,1.53,1.71,2.77,2.92,3.71
		c1.21,0.95,2.54,1.7,3.99,2.27c1.46,0.57,2.9,1.03,4.33,1.38c1.44,0.34,2.76,0.67,3.98,0.97c1.21,0.31,2.18,0.69,2.91,1.14
		c0.74,0.45,1.11,1.06,1.11,1.84c0,0.49-0.16,0.91-0.48,1.25c-0.32,0.34-0.82,0.61-1.5,0.79c-0.68,0.19-1.62,0.28-2.81,0.28
		c-2.03,0-4.13-0.36-6.28-1.07c-2.16-0.71-4.11-1.67-5.86-2.85l-4,10.55c1.86,1.31,4.23,2.36,7.1,3.19
		c2.87,0.81,5.85,1.23,8.93,1.23c3.83,0,6.99-0.67,9.52-1.99c2.52-1.33,4.42-3.09,5.7-5.27c1.28-2.18,1.92-4.59,1.92-7.21
		c0-2.25-0.37-4.12-1.1-5.64C159.46,86.54,158.49,85.31,157.28,84.37z"/>
	<path class="st2" d="M212.4,84.37c-0.91-0.7-1.88-1.31-2.91-1.8c-0.35-0.17-0.7-0.32-1.06-0.47c-1.43-0.57-2.88-1.02-4.33-1.34
		c-1.46-0.32-2.78-0.63-3.99-0.92c-1.21-0.29-2.18-0.64-2.92-1.07c-0.74-0.43-1.11-1.01-1.11-1.75c0-0.49,0.15-0.94,0.45-1.34
		c0.3-0.41,0.79-0.74,1.5-0.98c0.7-0.24,1.64-0.37,2.83-0.37c1.61,0,3.27,0.27,4.97,0.8s3.46,1.33,5.28,2.39l3.73-10.49
		c-1.93-1.26-4.1-2.21-6.52-2.82c-2.42-0.61-4.87-0.92-7.35-0.92c-3.78,0-6.95,0.65-9.48,1.96c-2.54,1.31-4.45,3.06-5.73,5.24
		c-1.28,2.18-1.92,4.61-1.92,7.26c0,1.86,0.24,3.47,0.73,4.82c0.11,0.32,0.23,0.62,0.38,0.91c0.73,1.53,1.7,2.77,2.91,3.71
		c1.21,0.95,2.54,1.7,4,2.27c1.45,0.57,2.89,1.03,4.33,1.38c1.43,0.34,2.76,0.67,3.97,0.97c1.21,0.31,2.18,0.69,2.92,1.14
		c0.73,0.45,1.1,1.06,1.1,1.84c0,0.49-0.16,0.91-0.47,1.25c-0.32,0.34-0.82,0.61-1.5,0.79c-0.68,0.19-1.62,0.28-2.82,0.28
		c-2.03,0-4.12-0.36-6.28-1.07c-2.16-0.71-4.11-1.67-5.86-2.85l-3.99,10.55c1.85,1.31,4.22,2.36,7.09,3.19
		c2.88,0.81,5.85,1.23,8.93,1.23c3.82,0,6.99-0.67,9.51-1.99c2.53-1.33,4.43-3.09,5.7-5.27c1.28-2.18,1.92-4.59,1.92-7.21
		c0-2.25-0.37-4.12-1.1-5.64C214.58,86.54,213.61,85.31,212.4,84.37z"/>
</g>
</svg>
