<?xml version="1.0" encoding="utf-8"?>
<!-- Generator: Adobe Illustrator 26.0.0, SVG Export Plug-In . SVG Version: 6.00 Build 0)  -->
<svg version="1.1" id="Capa_1" xmlns="http://www.w3.org/2000/svg" xmlns:xlink="http://www.w3.org/1999/xlink" x="0px" y="0px"
	 viewBox="0 0 211.42 122.24" style="enable-background:new 0 0 211.42 122.24;" xml:space="preserve">
<style type="text/css">
	.st0{fill:#BED998;}
	.st1{fill:none;}
	.st2{fill:url(#SVGID_1_);}
	.st3{fill:url(#SVGID_00000125597246713793046970000003278670927695057057_);}
	.st4{fill:url(#SVGID_00000054250269487390977670000006611203483150994094_);}
	.st5{fill:url(#SVGID_00000062873204036368711380000012529214773344553876_);}
	.st6{fill:url(#SVGID_00000176763476394326260400000010349131504405647264_);}
	.st7{fill:url(#SVGID_00000078738016099024374770000002056462103622139056_);}
	.st8{fill:url(#SVGID_00000106112010501834651600000001600023395775587482_);}
	.st9{fill:url(#SVGID_00000158021751568697479440000001609575489921684611_);}
	.st10{fill:url(#SVGID_00000086683962842259943950000018215780695342020771_);}
	.st11{fill:url(#SVGID_00000049939087615610316510000007749959873134640569_);}
	.st12{fill:url(#SVGID_00000036946700813954072200000015934323130980218521_);}
	.st13{fill:#F3CA4A;}
	.st14{fill:#FDC506;}
	.st15{fill:#EFB814;}
	.st16{fill:#D9AD26;}
	.st17{fill:#65440F;}
	.st18{fill:url(#SVGID_00000056416682675517659910000011185806894123779991_);}
	.st19{fill:url(#SVGID_00000170255996973489094410000015330209365744328332_);}
	.st20{fill:url(#SVGID_00000013150701116631822720000011484073195467511741_);}
	.st21{fill:url(#SVGID_00000183953553510798118130000015717554322679185298_);}
	.st22{fill:url(#SVGID_00000093875337093328627790000001584650390123698357_);}
	.st23{fill:url(#SVGID_00000155115573567496683200000015337109274687213696_);}
	.st24{fill:url(#SVGID_00000033362000315659414350000010508490014283022513_);}
	.st25{fill:url(#SVGID_00000017485981273225713370000003633696625606147263_);}
	.st26{fill:url(#SVGID_00000182495425858561413830000009266281011294312833_);}
	.st27{fill:#FFFFFF;}
</style>
<path class="st0" d="M-48.53,388.59L-48.53,388.59l-0.01-0.83C-48.54,388.05-48.54,388.33-48.53,388.59z"/>
<line class="st1" x1="-49.61" y1="495.73" x2="-49.61" y2="483.76"/>
<linearGradient id="SVGID_1_" gradientUnits="userSpaceOnUse" x1="-440.0308" y1="-64.9596" x2="-340.0744" y2="29.2774">
	<stop  offset="0" style="stop-color:#D29C01"/>
	<stop  offset="0.266" style="stop-color:#FDC506"/>
	<stop  offset="0.5895" style="stop-color:#65440F"/>
	<stop  offset="0.8557" style="stop-color:#D9AD26"/>
</linearGradient>
<path class="st2" d="M-337.35-31.95c0,30.66-24.84,55.5-55.48,55.5c-9.51,0-18.47-2.39-26.29-6.61c-2.41-1.3-4.7-2.76-6.88-4.39
	v-68.41c0-3.8,3.08-6.88,6.88-6.88V9.4c7.59,4.83,16.61,7.64,26.29,7.64c27.06,0,48.98-21.93,48.98-49v-0.49h6.49
	C-337.35-32.28-337.35-32.12-337.35-31.95z"/>
<linearGradient id="SVGID_00000165216888219862200530000001431574658701285025_" gradientUnits="userSpaceOnUse" x1="-434.3646" y1="-68.7612" x2="-382.1614" y2="-22.639">
	<stop  offset="0" style="stop-color:#158891"/>
	<stop  offset="0.3147" style="stop-color:#4BBAC9"/>
	<stop  offset="0.4501" style="stop-color:#9CD5DF"/>
	<stop  offset="1" style="stop-color:#02686C"/>
</linearGradient>
<path style="fill:url(#SVGID_00000165216888219862200530000001431574658701285025_);" d="M-337.84-39.33h-43.89v7.6h19.36
	c3.8,0,6.88,3.08,6.88,6.88v11.92c0,3.8-3.08,6.88-6.88,6.88h-35.8v-6.88h35.8v-11.92h-19.36c-3.8,0-6.88-3.08-6.88-6.88v-7.6
	c0-3.8,3.08-6.88,6.88-6.88h35.77c-6.11-20.1-24.78-34.72-46.87-34.72c-27.07,0-49,21.93-49,48.98c0,10.53,3.31,20.27,8.95,28.25
	V6.47c-9.56-9.97-15.45-23.51-15.45-38.43c0-30.64,24.84-55.48,55.5-55.48C-364.7-87.44-341.44-66.49-337.84-39.33z"/>
<linearGradient id="SVGID_00000165945638375635892780000011667566678330446733_" gradientUnits="userSpaceOnUse" x1="-426.3293" y1="-70.2883" x2="-326.3728" y2="23.9487">
	<stop  offset="0" style="stop-color:#FDC506"/>
	<stop  offset="0.266" style="stop-color:#FDC506"/>
	<stop  offset="0.5895" style="stop-color:#65440F"/>
	<stop  offset="0.8557" style="stop-color:#D9AD26"/>
</linearGradient>
<polygon style="fill:url(#SVGID_00000165945638375635892780000011667566678330446733_);" points="-391.3,-62.76 -391.3,-18.26 
	-398.18,-18.26 -398.18,-39.36 -416.98,-39.36 -416.98,-46.24 -398.18,-46.24 -398.18,-62.76 "/>
<polygon class="st1" points="-257.34,-49.6 -258.64,-46.89 -249.25,-46.89 -250.55,-49.6 -253.95,-56.7 "/>
<path class="st1" d="M-303.07-44.1c0.77,0.7,1.66,1.24,2.69,1.62c1.03,0.38,2.15,0.57,3.38,0.57c1.2,0,2.31-0.19,3.34-0.57
	c1.03-0.38,1.92-0.92,2.67-1.62c0.76-0.69,1.35-1.51,1.77-2.44c0.43-0.93,0.64-1.95,0.64-3.06s-0.21-2.13-0.64-3.06
	c-0.42-0.93-1.02-1.75-1.77-2.45c-0.76-0.69-1.64-1.23-2.67-1.61c-1.03-0.38-2.14-0.57-3.34-0.57c-1.22,0-2.35,0.19-3.38,0.57
	c-1.03,0.38-1.92,0.92-2.69,1.61c-0.77,0.7-1.36,1.51-1.79,2.45c-0.42,0.93-0.63,1.95-0.63,3.06s0.21,2.12,0.63,3.06
	C-304.43-45.61-303.84-44.8-303.07-44.1z"/>
<g>
	
		<linearGradient id="SVGID_00000052103484613219993500000007246437378829623976_" gradientUnits="userSpaceOnUse" x1="-321.8367" y1="-75.359" x2="-322.4622" y2="-38.7157">
		<stop  offset="0.5196" style="stop-color:#FDC506"/>
		<stop  offset="0.8547" style="stop-color:#65440F"/>
	</linearGradient>
	<polygon style="fill:url(#SVGID_00000052103484613219993500000007246437378829623976_);" points="-315.94,-51.01 -328.44,-51.01 
		-328.44,-59.61 -331.55,-59.61 -331.55,-49.6 -312.83,-49.6 -312.83,-59.61 -315.94,-59.61 	"/>
	
		<linearGradient id="SVGID_00000111183778607741965790000006137075026545240452_" gradientUnits="userSpaceOnUse" x1="-296.608" y1="-74.9323" x2="-297.2332" y2="-38.3092">
		<stop  offset="0.5196" style="stop-color:#FDC506"/>
		<stop  offset="0.8547" style="stop-color:#65440F"/>
	</linearGradient>
	<path style="fill:url(#SVGID_00000111183778607741965790000006137075026545240452_);" d="M-288.75-56.94
		c-1.04-0.92-2.27-1.63-3.67-2.14c-1.4-0.51-2.93-0.76-4.58-0.76c-1.68,0-3.23,0.26-4.63,0.77c-1.41,0.52-2.63,1.24-3.67,2.16
		c-1.03,0.92-1.84,2-2.42,3.24c-0.58,1.24-0.87,2.59-0.87,4.06h3.11c0-1.11,0.21-2.13,0.63-3.06c0.43-0.93,1.02-1.75,1.79-2.45
		c0.77-0.69,1.66-1.23,2.69-1.61c1.03-0.38,2.15-0.57,3.38-0.57c1.2,0,2.31,0.19,3.34,0.57c1.03,0.38,1.92,0.92,2.67,1.61
		c0.76,0.7,1.35,1.51,1.77,2.45c0.43,0.93,0.64,1.95,0.64,3.06h3.1c0-1.49-0.28-2.85-0.85-4.09
		C-286.9-54.93-287.71-56.01-288.75-56.94z"/>
	
		<linearGradient id="SVGID_00000042733921431390949830000011384262617902365609_" gradientUnits="userSpaceOnUse" x1="-279.346" y1="-74.6426" x2="-279.9708" y2="-38.044">
		<stop  offset="0.5196" style="stop-color:#FDC506"/>
		<stop  offset="0.8547" style="stop-color:#65440F"/>
	</linearGradient>
	
		<rect x="-281.24" y="-59.61" style="fill:url(#SVGID_00000042733921431390949830000011384262617902365609_);" width="3.11" height="10"/>
	
		<linearGradient id="SVGID_00000103969752164711807130000007320241890211335303_" gradientUnits="userSpaceOnUse" x1="-253.4988" y1="-74.2278" x2="-254.1238" y2="-37.6149">
		<stop  offset="0.5196" style="stop-color:#FDC506"/>
		<stop  offset="0.8547" style="stop-color:#65440F"/>
	</linearGradient>
	<polygon style="fill:url(#SVGID_00000103969752164711807130000007320241890211335303_);" points="-253.95,-56.7 -250.55,-49.6 
		-247.44,-49.6 -252.39,-59.61 -255.47,-59.61 -260.4,-49.6 -257.34,-49.6 	"/>
</g>
<g>
	
		<linearGradient id="SVGID_00000074412845007219367110000016270452125582915239_" gradientUnits="userSpaceOnUse" x1="-322.5793" y1="-31.8652" x2="-321.9534" y2="-52.3974">
		<stop  offset="0" style="stop-color:#FDC506"/>
		<stop  offset="0.4609" style="stop-color:#F7C009"/>
		<stop  offset="1" style="stop-color:#65440F"/>
	</linearGradient>
	<polygon style="fill:url(#SVGID_00000074412845007219367110000016270452125582915239_);" points="-331.55,-39.6 -328.44,-39.6 
		-328.44,-48.52 -315.94,-48.52 -315.94,-39.6 -312.83,-39.6 -312.83,-49.6 -331.55,-49.6 	"/>
	
		<linearGradient id="SVGID_00000035514393463789275670000003806586382321659008_" gradientUnits="userSpaceOnUse" x1="-297.5992" y1="-31.1582" x2="-296.9739" y2="-51.6715">
		<stop  offset="0" style="stop-color:#FDC506"/>
		<stop  offset="0.4609" style="stop-color:#F7C009"/>
		<stop  offset="1" style="stop-color:#65440F"/>
	</linearGradient>
	<path style="fill:url(#SVGID_00000035514393463789275670000003806586382321659008_);" d="M-289.22-46.55
		c-0.42,0.93-1.02,1.75-1.77,2.44c-0.76,0.7-1.64,1.24-2.67,1.62c-1.03,0.38-2.14,0.57-3.34,0.57c-1.22,0-2.35-0.19-3.38-0.57
		c-1.03-0.38-1.92-0.92-2.69-1.62c-0.77-0.69-1.36-1.51-1.79-2.44c-0.42-0.93-0.63-1.95-0.63-3.06h-3.11c0,1.47,0.29,2.82,0.87,4.06
		s1.39,2.32,2.42,3.24c1.04,0.92,2.27,1.64,3.69,2.16c1.42,0.52,2.95,0.78,4.62,0.78c1.66,0,3.19-0.25,4.58-0.76
		c1.4-0.51,2.63-1.22,3.67-2.14c1.04-0.92,1.85-2.01,2.42-3.24s0.85-2.6,0.85-4.09h-3.1C-288.58-48.5-288.79-47.48-289.22-46.55z"/>
	
		<linearGradient id="SVGID_00000021112153699097497360000009846054137852777646_" gradientUnits="userSpaceOnUse" x1="-274.2261" y1="-30.4783" x2="-273.6015" y2="-50.9675">
		<stop  offset="0" style="stop-color:#FDC506"/>
		<stop  offset="0.4609" style="stop-color:#F7C009"/>
		<stop  offset="1" style="stop-color:#65440F"/>
	</linearGradient>
	<polygon style="fill:url(#SVGID_00000021112153699097497360000009846054137852777646_);" points="-278.13,-49.6 -281.24,-49.6 
		-281.24,-39.6 -266.35,-39.6 -266.35,-42.09 -278.13,-42.09 	"/>
	
		<linearGradient id="SVGID_00000007428251526035456490000003035641136723428227_" gradientUnits="userSpaceOnUse" x1="-254.2099" y1="-29.8721" x2="-253.5841" y2="-50.4021">
		<stop  offset="0" style="stop-color:#FDC506"/>
		<stop  offset="0.4609" style="stop-color:#F7C009"/>
		<stop  offset="1" style="stop-color:#65440F"/>
	</linearGradient>
	<polygon style="fill:url(#SVGID_00000007428251526035456490000003035641136723428227_);" points="-247.44,-49.6 -250.55,-49.6 
		-249.25,-46.89 -258.64,-46.89 -257.34,-49.6 -260.4,-49.6 -265.33,-39.6 -262.12,-39.6 -259.73,-44.6 -248.16,-44.6 
		-245.77,-39.6 -242.5,-39.6 	"/>
</g>
<rect x="-388.28" y="218.27" class="st13" width="15.66" height="15.66"/>
<rect x="-368.66" y="218.27" class="st14" width="15.66" height="15.66"/>
<rect x="-349.36" y="218.27" class="st15" width="15.66" height="15.66"/>
<rect x="-330.03" y="218.27" class="st16" width="15.66" height="15.66"/>
<rect x="-310.45" y="218.27" class="st17" width="15.66" height="15.66"/>
<g>
	
		<linearGradient id="SVGID_00000013912895244308444810000000541673042377813383_" gradientUnits="userSpaceOnUse" x1="-315.468" y1="-53.635" x2="-315.468" y2="-11.8734">
		<stop  offset="0.352" style="stop-color:#9CD5DF"/>
		<stop  offset="0.7028" style="stop-color:#43B8C8"/>
		<stop  offset="0.7636" style="stop-color:#3AACBA"/>
		<stop  offset="0.8682" style="stop-color:#239099"/>
		<stop  offset="1" style="stop-color:#02686C"/>
	</linearGradient>
	<path style="fill:url(#SVGID_00000013912895244308444810000000541673042377813383_);" d="M-306.38-13.76
		c-1.44-0.57-2.88-1.02-4.34-1.34c-1.45-0.32-2.78-0.63-3.99-0.92c-1.21-0.29-2.18-0.64-2.92-1.07c-0.73-0.43-1.1-1.01-1.1-1.75
		c0-0.49,0.15-0.94,0.44-1.34c0.3-0.41,0.8-0.74,1.5-0.98c0.7-0.24,1.65-0.37,2.84-0.37c1.61,0,3.27,0.27,4.97,0.8
		c1.69,0.53,3.46,1.33,5.28,2.39l3.73-10.49c-1.93-1.26-4.1-2.21-6.52-2.82c-2.42-0.61-4.87-0.92-7.36-0.92
		c-3.78,0-6.94,0.65-9.48,1.96c-2.54,1.31-4.45,3.06-5.73,5.24c-1.28,2.18-1.92,4.61-1.92,7.26c0,1.86,0.24,3.47,0.73,4.82h24.93
		C-305.67-13.46-306.02-13.61-306.38-13.76z"/>
	
		<linearGradient id="SVGID_00000063595892742548059240000008362734013314784701_" gradientUnits="userSpaceOnUse" x1="-287.4082" y1="-53.635" x2="-287.4082" y2="-11.8734">
		<stop  offset="0.352" style="stop-color:#9CD5DF"/>
		<stop  offset="0.6792" style="stop-color:#43B8C8"/>
		<stop  offset="0.7446" style="stop-color:#3AADBA"/>
		<stop  offset="0.8566" style="stop-color:#249099"/>
		<stop  offset="1" style="stop-color:#02686C"/>
	</linearGradient>
	
		<rect x="-293.61" y="-31.6" style="fill:url(#SVGID_00000063595892742548059240000008362734013314784701_);" width="12.4" height="18.31"/>
	
		<linearGradient id="SVGID_00000141453723535833349660000010883238943349936315_" gradientUnits="userSpaceOnUse" x1="-260.3485" y1="-53.635" x2="-260.3485" y2="-11.8734">
		<stop  offset="0.352" style="stop-color:#9CD5DF"/>
		<stop  offset="0.6934" style="stop-color:#43B8C8"/>
		<stop  offset="0.8969" style="stop-color:#157E83"/>
		<stop  offset="1" style="stop-color:#02686C"/>
	</linearGradient>
	<path style="fill:url(#SVGID_00000141453723535833349660000010883238943349936315_);" d="M-251.26-13.76
		c-1.43-0.57-2.88-1.02-4.33-1.34c-1.46-0.32-2.78-0.63-3.99-0.92c-1.21-0.29-2.18-0.64-2.92-1.07c-0.74-0.43-1.11-1.01-1.11-1.75
		c0-0.49,0.15-0.94,0.45-1.34c0.3-0.41,0.79-0.74,1.5-0.98c0.7-0.24,1.64-0.37,2.83-0.37c1.61,0,3.27,0.27,4.97,0.8
		c1.7,0.53,3.46,1.33,5.28,2.39l3.73-10.49c-1.93-1.26-4.1-2.21-6.52-2.82c-2.42-0.61-4.87-0.92-7.35-0.92
		c-3.78,0-6.95,0.65-9.48,1.96c-2.54,1.31-4.45,3.06-5.73,5.24c-1.28,2.18-1.92,4.61-1.92,7.26c0,1.86,0.24,3.47,0.73,4.82h24.92
		C-250.55-13.46-250.9-13.61-251.26-13.76z"/>
	
		<linearGradient id="SVGID_00000130644623264882431550000011097304185258841250_" gradientUnits="userSpaceOnUse" x1="-232.6012" y1="-53.635" x2="-232.6012" y2="-11.8734">
		<stop  offset="0.352" style="stop-color:#9CD5DF"/>
		<stop  offset="0.6651" style="stop-color:#43B8C8"/>
		<stop  offset="0.7287" style="stop-color:#3DB1BF"/>
		<stop  offset="0.8183" style="stop-color:#2E9DA8"/>
		<stop  offset="0.9227" style="stop-color:#178086"/>
		<stop  offset="1" style="stop-color:#02686C"/>
	</linearGradient>
	
		<rect x="-238.81" y="-31.6" style="fill:url(#SVGID_00000130644623264882431550000011097304185258841250_);" width="12.41" height="18.31"/>
	
		<linearGradient id="SVGID_00000174573967804489443550000004160681463451323321_" gradientUnits="userSpaceOnUse" x1="-209.0583" y1="-53.635" x2="-209.0583" y2="-11.8734">
		<stop  offset="0.352" style="stop-color:#9CD5DF"/>
		<stop  offset="0.6934" style="stop-color:#43B8C8"/>
		<stop  offset="0.7572" style="stop-color:#3FB3C2"/>
		<stop  offset="0.8276" style="stop-color:#34A4B1"/>
		<stop  offset="0.9013" style="stop-color:#228E97"/>
		<stop  offset="0.9766" style="stop-color:#0A7276"/>
		<stop  offset="1" style="stop-color:#02686C"/>
	</linearGradient>
	
		<rect x="-215.15" y="-31.6" style="fill:url(#SVGID_00000174573967804489443550000004160681463451323321_);" width="12.19" height="18.31"/>
</g>
<g>
	
		<linearGradient id="SVGID_00000166637863145210029320000000894862862314416519_" gradientUnits="userSpaceOnUse" x1="-314.4694" y1="27.8913" x2="-315.3493" y2="-16.1024">
		<stop  offset="0.3101" style="stop-color:#9CD5DF"/>
		<stop  offset="0.5381" style="stop-color:#43B8C8"/>
		<stop  offset="0.6794" style="stop-color:#1F8A92"/>
		<stop  offset="0.7649" style="stop-color:#0E767B"/>
		<stop  offset="0.8832" style="stop-color:#0B7277"/>
		<stop  offset="1" style="stop-color:#02686C"/>
	</linearGradient>
	<path style="fill:url(#SVGID_00000166637863145210029320000000894862862314416519_);" d="M-302.41-11.48
		c-0.91-0.7-1.88-1.31-2.91-1.8h-24.93c0.11,0.32,0.23,0.62,0.38,0.91c0.73,1.53,1.71,2.77,2.92,3.71c1.21,0.95,2.54,1.7,3.99,2.27
		c1.46,0.57,2.9,1.03,4.33,1.38c1.44,0.34,2.76,0.67,3.98,0.97c1.21,0.31,2.18,0.69,2.91,1.14c0.74,0.45,1.11,1.06,1.11,1.84
		c0,0.49-0.16,0.91-0.48,1.25c-0.32,0.34-0.82,0.61-1.5,0.79c-0.68,0.19-1.62,0.28-2.81,0.28c-2.03,0-4.13-0.36-6.28-1.07
		c-2.16-0.71-4.11-1.67-5.86-2.85l-4,10.55c1.86,1.31,4.23,2.36,7.1,3.19c2.87,0.81,5.85,1.23,8.93,1.23c3.83,0,6.99-0.67,9.52-1.99
		c2.52-1.33,4.42-3.09,5.7-5.27c1.28-2.18,1.92-4.59,1.92-7.21c0-2.25-0.37-4.12-1.1-5.64C-300.23-9.32-301.2-10.54-302.41-11.48z"
		/>
	
		<linearGradient id="SVGID_00000113350370335957840110000003019534529282283435_" gradientUnits="userSpaceOnUse" x1="-286.8428" y1="27.2852" x2="-287.6956" y2="-15.3565">
		<stop  offset="0.3313" style="stop-color:#9CD5DF"/>
		<stop  offset="0.5483" style="stop-color:#43B8C8"/>
		<stop  offset="0.7913" style="stop-color:#0E767B"/>
		<stop  offset="1" style="stop-color:#02686C"/>
	</linearGradient>
	
		<rect x="-293.61" y="-13.29" style="fill:url(#SVGID_00000113350370335957840110000003019534529282283435_);" width="12.4" height="24.61"/>
	
		<linearGradient id="SVGID_00000005976643484170411470000011301832501783129517_" gradientUnits="userSpaceOnUse" x1="-259.3697" y1="26.6991" x2="-260.2142" y2="-15.5296">
		<stop  offset="0" style="stop-color:#9CD5DF"/>
		<stop  offset="0.3492" style="stop-color:#43B8C8"/>
		<stop  offset="0.4725" style="stop-color:#3FB4C3"/>
		<stop  offset="0.5892" style="stop-color:#36A7B4"/>
		<stop  offset="0.7032" style="stop-color:#27949D"/>
		<stop  offset="0.8149" style="stop-color:#127B80"/>
		<stop  offset="0.8328" style="stop-color:#0E767B"/>
		<stop  offset="0.8519" style="stop-color:#087074"/>
		<stop  offset="0.8911" style="stop-color:#036A6D"/>
		<stop  offset="1" style="stop-color:#02686C"/>
	</linearGradient>
	<path style="fill:url(#SVGID_00000005976643484170411470000011301832501783129517_);" d="M-247.29-11.48
		c-0.91-0.7-1.88-1.31-2.91-1.8h-24.92c0.11,0.32,0.23,0.62,0.38,0.91c0.73,1.53,1.7,2.77,2.91,3.71c1.21,0.95,2.54,1.7,4,2.27
		c1.45,0.57,2.89,1.03,4.33,1.38c1.43,0.34,2.76,0.67,3.97,0.97c1.21,0.31,2.18,0.69,2.92,1.14s1.1,1.06,1.1,1.84
		c0,0.49-0.16,0.91-0.47,1.25c-0.32,0.34-0.82,0.61-1.5,0.79c-0.68,0.19-1.63,0.28-2.82,0.28c-2.03,0-4.12-0.36-6.28-1.07
		c-2.16-0.71-4.11-1.67-5.86-2.85l-3.99,10.55c1.85,1.31,4.22,2.36,7.09,3.19c2.88,0.81,5.85,1.23,8.93,1.23
		c3.82,0,6.99-0.67,9.51-1.99c2.53-1.33,4.43-3.09,5.7-5.27c1.28-2.18,1.92-4.59,1.92-7.21c0-2.25-0.37-4.12-1.1-5.64
		C-245.11-9.32-246.08-10.54-247.29-11.48z"/>
	
		<linearGradient id="SVGID_00000104681123057945881600000011974994940396371634_" gradientUnits="userSpaceOnUse" x1="-220.158" y1="25.8478" x2="-220.9981" y2="-16.1532">
		<stop  offset="0" style="stop-color:#9CD5DF"/>
		<stop  offset="0.4586" style="stop-color:#43B8C8"/>
		<stop  offset="0.4813" style="stop-color:#3FB3C2"/>
		<stop  offset="0.7205" style="stop-color:#1B868D"/>
		<stop  offset="0.8416" style="stop-color:#0E767B"/>
		<stop  offset="0.8439" style="stop-color:#0E767A"/>
		<stop  offset="0.9202" style="stop-color:#056C6F"/>
		<stop  offset="1" style="stop-color:#02686C"/>
	</linearGradient>
	<path style="fill:url(#SVGID_00000104681123057945881600000011974994940396371634_);" d="M-215.15-8.42c0,3.28-0.5,5.6-1.5,6.97
		c-1,1.36-2.38,2.05-4.13,2.05c-1.72,0-3.08-0.69-4.1-2.05c-1.02-1.37-1.52-3.69-1.52-6.97v-4.86h-12.41v5.3
		c0,6.42,1.58,11.41,4.73,14.96c3.15,3.56,7.55,5.33,13.19,5.33c5.63,0,10.03-1.78,13.18-5.33c3.16-3.56,4.73-8.55,4.73-14.96v-5.3
		h-12.19V-8.42z"/>
</g>
<path class="st27" d="M117.48,61.96c0,30.66-24.84,55.5-55.48,55.5c-9.51,0-18.47-2.39-26.29-6.61c-2.41-1.3-4.7-2.76-6.88-4.39
	V38.04c0-3.8,3.08-6.88,6.88-6.88v72.16c7.59,4.83,16.61,7.64,26.29,7.64c27.06,0,48.98-21.93,48.98-49v-0.49h6.49
	C117.48,61.63,117.48,61.79,117.48,61.96z"/>
<path class="st27" d="M116.99,54.58H73.1v7.6h19.36c3.8,0,6.88,3.08,6.88,6.88v11.92c0,3.8-3.08,6.88-6.88,6.88h-35.8v-6.88h35.8
	V69.07H73.1c-3.8,0-6.88-3.08-6.88-6.88v-7.6c0-3.8,3.08-6.88,6.88-6.88h35.77c-6.1-20.1-24.78-34.72-46.87-34.72
	c-27.07,0-49,21.93-49,48.98c0,10.53,3.31,20.27,8.95,28.25v10.18C12.39,90.42,6.5,76.88,6.5,61.96c0-30.64,24.84-55.48,55.5-55.48
	C90.13,6.47,113.39,27.43,116.99,54.58z"/>
<polygon class="st27" points="63.53,31.16 63.53,75.66 56.64,75.66 56.64,54.56 37.85,54.56 37.85,47.67 56.64,47.67 56.64,31.16 
	"/>
<g>
	<polygon class="st27" points="137.87,37.71 137.87,54.65 135.24,54.65 135.24,47.1 124.65,47.1 124.65,54.65 122.02,54.65 
		122.02,37.71 124.65,37.71 124.65,45 135.24,45 135.24,37.71 	"/>
	<path class="st27" d="M160.32,42.72c-0.49-1.05-1.17-1.96-2.05-2.75c-0.89-0.78-1.93-1.38-3.11-1.81
		c-1.19-0.43-2.48-0.64-3.88-0.64c-1.43,0-2.74,0.22-3.93,0.65c-1.19,0.44-2.23,1.05-3.11,1.83c-0.87,0.78-1.56,1.69-2.05,2.75
		c-0.49,1.04-0.74,2.19-0.74,3.43c0,1.25,0.25,2.39,0.74,3.44s1.18,1.97,2.05,2.75c0.88,0.78,1.92,1.39,3.13,1.82
		c1.2,0.44,2.5,0.66,3.91,0.66c1.4,0,2.69-0.21,3.88-0.64c1.18-0.43,2.22-1.04,3.11-1.82c0.88-0.78,1.56-1.7,2.05-2.75
		c0.48-1.04,0.72-2.2,0.72-3.46S160.8,43.77,160.32,42.72z M157.87,48.77c-0.36,0.79-0.86,1.48-1.5,2.07
		c-0.64,0.59-1.39,1.05-2.26,1.37s-1.82,0.48-2.83,0.48c-1.04,0-1.99-0.16-2.86-0.48s-1.63-0.78-2.28-1.37
		c-0.65-0.59-1.15-1.28-1.52-2.07c-0.35-0.79-0.53-1.65-0.53-2.59c0-0.93,0.18-1.8,0.53-2.59c0.37-0.79,0.87-1.48,1.52-2.07
		c0.65-0.59,1.41-1.04,2.28-1.36c0.87-0.33,1.82-0.49,2.86-0.49c1.01,0,1.96,0.16,2.83,0.49c0.87,0.32,1.62,0.77,2.26,1.36
		c0.64,0.59,1.14,1.28,1.5,2.07c0.36,0.79,0.54,1.66,0.54,2.59C158.41,47.12,158.23,47.98,157.87,48.77z"/>
	<polygon class="st27" points="177.24,52.55 177.24,54.65 164.62,54.65 164.62,37.71 167.26,37.71 167.26,52.55 	"/>
	<path class="st27" d="M193.25,46.18l-4.19-8.47h-2.61l-4.17,8.47l-4.18,8.47h2.72l2.02-4.23h9.8l2.03,4.23h2.76L193.25,46.18z
		 M183.77,48.48l1.1-2.3l2.87-6.01l2.88,6.01l1.1,2.3H183.77z"/>
</g>
<g>
	<path class="st27" d="M143.04,79.6c0,1.27-0.38,2.45-1.13,3.54c-0.76,1.09-1.92,1.97-3.49,2.63c-1.58,0.66-3.56,0.99-5.95,0.99
		c-2.08,0-4.07-0.29-5.97-0.88c-1.89-0.59-3.39-1.35-4.48-2.29l1.44-2.81c1.04,0.84,2.37,1.54,3.98,2.09s3.29,0.83,5.03,0.83
		c1.59,0,2.87-0.17,3.86-0.5c0.99-0.34,1.72-0.8,2.18-1.39c0.47-0.59,0.71-1.26,0.71-2c0-0.86-0.31-1.56-0.92-2.09
		c-0.61-0.52-1.4-0.95-2.38-1.27c-0.97-0.33-2.05-0.61-3.22-0.85c-1.17-0.24-2.34-0.52-3.52-0.85c-0.89-0.24-1.72-0.54-2.49-0.88
		c-0.26-0.11-0.51-0.23-0.75-0.36c-0.98-0.5-1.76-1.18-2.36-2.03c-0.6-0.85-0.9-1.95-0.9-3.3c0-1.29,0.37-2.49,1.11-3.58
		c0.74-1.09,1.89-1.97,3.44-2.63c1.54-0.66,3.51-0.99,5.9-0.99c1.59,0,3.16,0.2,4.72,0.58s2.91,0.93,4.06,1.66l-1.29,2.88
		c-1.17-0.73-2.4-1.25-3.7-1.57c-1.3-0.33-2.57-0.49-3.79-0.49c-1.53,0-2.79,0.18-3.78,0.54c-0.99,0.36-1.71,0.84-2.16,1.44
		c-0.46,0.6-0.69,1.28-0.69,2.02c0,0.89,0.31,1.6,0.92,2.12c0.61,0.53,1.4,0.95,2.38,1.26c0.97,0.32,2.05,0.6,3.22,0.85
		c1.17,0.25,2.34,0.53,3.53,0.85c0.78,0.21,1.52,0.45,2.21,0.75c0.35,0.14,0.69,0.3,1.02,0.47c0.98,0.5,1.76,1.17,2.36,2.01
		C142.74,77.2,143.04,78.28,143.04,79.6z"/>
	<rect x="147.23" y="61.41" class="st27" width="3.9" height="25.21"/>
	<path class="st27" d="M176.35,79.6c0,1.27-0.38,2.45-1.14,3.54c-0.75,1.09-1.91,1.97-3.49,2.63c-1.57,0.66-3.55,0.99-5.94,0.99
		c-2.08,0-4.07-0.29-5.97-0.88c-1.9-0.59-3.39-1.35-4.48-2.29l1.44-2.81c1.04,0.84,2.36,1.54,3.98,2.09
		c1.61,0.55,3.29,0.83,5.03,0.83c1.58,0,2.87-0.17,3.86-0.5c0.99-0.34,1.71-0.8,2.18-1.39c0.47-0.59,0.7-1.26,0.7-2
		c0-0.86-0.3-1.56-0.91-2.09c-0.61-0.52-1.41-0.95-2.38-1.27c-0.98-0.33-2.05-0.61-3.22-0.85c-1.17-0.24-2.35-0.52-3.53-0.85
		c-0.89-0.24-1.71-0.54-2.48-0.88c-0.26-0.11-0.51-0.23-0.75-0.36c-0.98-0.5-1.77-1.18-2.36-2.03c-0.6-0.85-0.9-1.95-0.9-3.3
		c0-1.29,0.37-2.49,1.11-3.58c0.74-1.09,1.89-1.97,3.43-2.63c1.55-0.66,3.52-0.99,5.91-0.99c1.59,0,3.16,0.2,4.72,0.58
		c1.56,0.38,2.91,0.93,4.05,1.66l-1.28,2.88c-1.17-0.73-2.41-1.25-3.71-1.57c-1.3-0.33-2.56-0.49-3.78-0.49
		c-1.53,0-2.79,0.18-3.78,0.54c-0.99,0.36-1.71,0.84-2.17,1.44c-0.45,0.6-0.68,1.28-0.68,2.02c0,0.89,0.31,1.6,0.92,2.12
		c0.61,0.53,1.4,0.95,2.38,1.26c0.97,0.32,2.04,0.6,3.21,0.85s2.35,0.53,3.53,0.85c0.79,0.21,1.53,0.45,2.22,0.75
		c0.35,0.14,0.69,0.3,1.02,0.47c0.97,0.5,1.76,1.17,2.36,2.01C176.05,77.2,176.35,78.28,176.35,79.6z"/>
	<path class="st27" d="M203.26,61.56v14.33c0,3.65-1.02,6.42-3.06,8.31c-2.04,1.9-4.87,2.85-8.49,2.85c-3.58,0-6.4-0.95-8.46-2.85
		c-2.05-1.89-3.08-4.66-3.08-8.31V61.56h3.9v14.18c0,2.81,0.67,4.86,2.01,6.16c1.34,1.29,3.23,1.94,5.67,1.94
		c2.47,0,4.38-0.65,5.72-1.94c1.34-1.3,2.01-3.35,2.01-6.16V61.56H203.26z"/>
</g>
</svg>
