<?xml version="1.0" encoding="utf-8"?>
<!-- Generator: Adobe Illustrator 26.0.0, SVG Export Plug-In . SVG Version: 6.00 Build 0)  -->
<svg version="1.1" id="Capa_1" xmlns="http://www.w3.org/2000/svg" xmlns:xlink="http://www.w3.org/1999/xlink" x="0px" y="0px"
	 viewBox="0 0 199.88 104.71" style="enable-background:new 0 0 199.88 104.71;" xml:space="preserve">
<style type="text/css">
	.st0{fill:none;}
	.st1{fill:#FFFFFF;}
</style>
<line class="st0" x1="71.28" y1="503.25" x2="71.28" y2="491.28"/>
<path class="st1" d="M27.95,59.5v39.79H6.13v-6.1c0.02-0.15,0.03-0.31,0.03-0.47V51.96c2.2,2.27,5.33,4.16,9.08,5.47
	C18.97,58.75,23.31,59.5,27.95,59.5z"/>
<path class="st1" d="M14.65,6.12c-3.81,1.84-6.8,4.51-8.49,7.67c-0.01,0.02-0.02,0.03-0.03,0.05V4.85
	C9.16,4.85,12.04,5.3,14.65,6.12z"/>
<path class="st1" d="M60.44,55.46H27.85c-3.95,0-7.66-0.77-10.86-2.13c-0.22-0.09-0.45-0.19-0.67-0.3c-4.2-1.92-7.43-4.87-9.04-8.37
	c-0.64-1.35-1.02-2.78-1.12-4.27c-0.02-0.27-0.03-0.55-0.03-0.82V20.74c0-0.27,0.01-0.55,0.03-0.82c0.1-1.49,0.48-2.92,1.12-4.27
	c1.69-3.68,5.18-6.76,9.7-8.67c5.18,2.18,9.01,5.89,10.35,10.28c0.33,1.1,0.51,2.23,0.52,3.4v18.99c0,0.14,0.01,0.28,0.01,0.41
	c0.01,0.14,0.02,0.27,0.03,0.4c0.01,0.13,0.03,0.26,0.06,0.39C29.21,49.03,43.27,55.46,60.44,55.46z"/>
<path class="st1" d="M74.26,4.67v47.32c-2.19-2.26-5.32-4.15-9.08-5.47c-3.72-1.31-8.04-2.07-12.66-2.07V4.67H74.26z"/>
<path class="st1" d="M74.21,62.48v21.75c-0.1,1.48-0.48,2.91-1.11,4.26c-4.22,0.1-8.17,0.84-11.6,2.04c-1.45,0.51-2.8,1.1-4.05,1.77
	c-0.23,0.13-0.46,0.25-0.68,0.39c-1.67,0.96-3.12,2.06-4.3,3.27c-0.02,0.02-0.03,0.03-0.05,0.05V55.25c0-0.09,0-0.18-0.01-0.27
	c-0.01-0.21-0.04-0.42-0.1-0.63c-0.1-0.49-0.31-0.97-0.59-1.42c-0.12-0.19-0.25-0.38-0.4-0.56c-0.63-0.77-1.5-1.46-2.55-2.02
	c-1.92-1.04-4.47-1.67-7.25-1.67h11.16c3.95,0,7.66,0.77,10.86,2.13c0.22,0.09,0.45,0.19,0.67,0.3c4.2,1.92,7.43,4.87,9.04,8.37
	C73.71,60.44,74.03,61.45,74.21,62.48z"/>
<path class="st1" d="M74.21,90.2v9.09H61.98c0.92-0.28,1.81-0.6,2.66-0.96c0.22-0.1,0.46-0.2,0.69-0.31
	C69.32,96.19,72.46,93.45,74.21,90.2z"/>
<path class="st1" d="M17.81,4.85c-1.11,0.36-2.16,0.79-3.16,1.27c-3.81,1.84-6.8,4.51-8.49,7.67v-2.37c0-0.16-0.01-0.32-0.03-0.48
	V4.85H17.81z"/>
<path class="st1" d="M27.95,4.85v47.32c-1.17-1.2-2.6-2.3-4.25-3.25c-0.09-0.05-0.18-0.11-0.27-0.15c-0.05-0.04-0.1-0.07-0.15-0.09
	c-0.12-0.08-0.24-0.14-0.37-0.21c-1.25-0.67-2.6-1.26-4.05-1.77c-3.43-1.2-7.37-1.94-11.58-2.04c-0.64-1.35-1.02-2.78-1.12-4.27
	V19.92c0.1-1.49,0.48-2.92,1.12-4.27c1.69-3.68,5.18-6.76,9.7-8.67c3.2-1.36,6.91-2.13,10.87-2.13H27.95z"/>
<path class="st1" d="M74.4,83.4V64.57c0-0.27-0.01-0.55-0.03-0.82c-0.03-0.43-0.08-0.85-0.16-1.27c-0.18-1.03-0.5-2.04-0.96-3
	c-1.61-3.5-4.84-6.45-9.04-8.37c-0.22-0.11-0.45-0.21-0.67-0.3c-3.2-1.36-6.91-2.13-10.86-2.13H20.09
	c16.63,0,30.35,6.03,32.33,13.85c0.07,0.25,0.12,0.5,0.16,0.76c0.03,0.13,0.05,0.26,0.06,0.39s0.02,0.26,0.03,0.4
	c0,0.13,0.01,0.27,0.01,0.41v18.99c0.01,1.17,0.19,2.3,0.52,3.4c0.65,2.13,1.88,4.1,3.57,5.81c1.8,1.82,4.11,3.35,6.78,4.47
	c0.19-0.08,0.37-0.16,0.56-0.24c4.25-1.93,7.52-4.9,9.14-8.43c0.64-1.35,1.02-2.78,1.12-4.27C74.39,83.95,74.4,83.67,74.4,83.4z"/>
<path class="st1" d="M74.37,63.75v20.47c-0.1,1.49-0.48,2.92-1.12,4.27c-1.62,3.53-4.89,6.5-9.14,8.43
	c-0.19,0.08-0.37,0.16-0.56,0.24c-3.2,1.36-6.91,2.13-10.87,2.13h-0.21v-3.33c-0.02,0.02-0.03,0.03-0.05,0.05v-2.18
	c0.02-0.06,0.04-0.13,0.05-0.19c0.08-0.3,0.11-0.61,0.11-0.92V51.97c0.3,0.31,0.62,0.61,0.96,0.9c0.96,0.86,2.07,1.64,3.29,2.35
	c0.09,0.06,0.18,0.11,0.28,0.16c0.04,0.03,0.09,0.06,0.14,0.08c0.12,0.08,0.24,0.14,0.37,0.21c1.25,0.67,2.6,1.26,4.05,1.77
	c3.43,1.2,7.37,1.94,11.58,2.04c0.46,0.96,0.78,1.97,0.96,3C74.29,62.9,74.34,63.32,74.37,63.75z"/>
<g>
	<path class="st1" d="M49.81,54.93c0.72,0.13,1.38,0.47,2.01,0.84c1.12,0.66,2.19,1.44,3.02,2.44s1.43,2.23,1.51,3.53"/>
</g>
<g>
	<path class="st1" d="M102.41,4.75v44.04h-5.8V27.87h-9.58v20.92h-5.8V4.75h5.8v20.92h9.58V4.75H102.41z"/>
	<path class="st1" d="M115.64,49.16c-1.18,0-2.37-0.11-3.59-0.31c-1.22-0.21-2.29-0.55-3.21-1.01c-0.93-0.46-1.68-1.06-2.27-1.8
		c-0.59-0.73-0.88-1.61-0.88-2.61V10.1c0-1.01,0.29-1.88,0.88-2.61c0.59-0.73,1.34-1.33,2.27-1.8c0.92-0.46,1.99-0.8,3.21-1.01
		c1.22-0.21,2.41-0.31,3.59-0.31h1.89c1.18,0,2.35,0.11,3.53,0.31c1.18,0.21,2.25,0.55,3.21,1.01c0.96,0.46,1.74,1.06,2.33,1.8
		c0.59,0.74,0.88,1.61,0.88,2.61v33.33c0,1.01-0.3,1.88-0.88,2.61c-0.59,0.74-1.37,1.33-2.33,1.8c-0.97,0.46-2.04,0.8-3.21,1.01
		c-1.18,0.21-2.35,0.31-3.53,0.31H115.64z M116.15,6.83c-1.18,0-2.25,0.28-3.21,0.85c-0.97,0.57-1.45,1.52-1.45,2.87v32.45
		c0,1.34,0.48,2.3,1.45,2.87c0.96,0.57,2.04,0.85,3.21,0.85h0.88c1.18,0,2.25-0.28,3.21-0.85c0.96-0.57,1.45-1.52,1.45-2.87V10.54
		c0-1.34-0.48-2.3-1.45-2.87c-0.97-0.57-2.04-0.85-3.21-0.85H116.15z"/>
	<path class="st1" d="M136.43,4.75v41.83h10.96v2.21h-16.76V4.75H136.43z"/>
	<path class="st1" d="M167.93,36.25h-9.2l-2.39,12.54h-5.17l8.57-44.04h7.56l8.69,44.04h-5.67L167.93,36.25z M159.24,34.04h8.19
		l-4.03-20.92h-0.13L159.24,34.04z"/>
	<path class="st1" d="M96.99,72.51V60.54c0-1.34-0.48-2.3-1.43-2.87c-0.96-0.57-2.01-0.85-3.17-0.85h-0.87
		c-1.16,0-2.22,0.28-3.17,0.85c-0.95,0.57-1.43,1.52-1.43,2.87v6.24c0,1.97,0.84,3.73,2.52,5.26c1.68,1.53,3.51,3.02,5.48,4.47
		c1.97,1.45,3.8,2.94,5.48,4.47c1.68,1.53,2.52,3.31,2.52,5.32v7.12c0,1.01-0.3,1.88-0.89,2.61c-0.59,0.74-1.35,1.33-2.28,1.8
		c-0.93,0.46-1.99,0.8-3.17,1.01c-1.18,0.21-2.41,0.31-3.67,0.31h-1.77c-1.19,0-2.39-0.11-3.61-0.31s-2.32-0.55-3.3-1.01
		c-0.97-0.46-1.75-1.06-2.34-1.8c-0.59-0.73-0.89-1.61-0.89-2.61V81.02h5.42v11.97c0,1.34,0.52,2.3,1.56,2.87
		c1.04,0.57,2.14,0.85,3.3,0.85h0.87c1.16,0,2.26-0.28,3.3-0.85c1.04-0.57,1.56-1.52,1.56-2.87v-6.3c0-1.3-0.4-2.5-1.2-3.59
		c-0.8-1.09-1.79-2.13-2.96-3.12c-1.18-0.99-2.46-1.95-3.84-2.9c-1.39-0.94-2.67-1.92-3.84-2.93c-1.18-1.01-2.16-2.08-2.96-3.21
		c-0.8-1.13-1.2-2.37-1.2-3.72V60.1c0-1.01,0.3-1.88,0.89-2.61c0.59-0.73,1.35-1.33,2.28-1.8c0.93-0.46,2.01-0.8,3.23-1.01
		c1.22-0.21,2.43-0.31,3.61-0.31h1.39c1.18,0,2.36,0.11,3.55,0.31c1.18,0.21,2.26,0.55,3.23,1.01c0.97,0.46,1.75,1.06,2.34,1.8
		c0.59,0.74,0.89,1.61,0.89,2.61v12.41H96.99z"/>
	<path class="st1" d="M116.52,54.75v44.04h-5.8V54.75H116.52z"/>
	<path class="st1" d="M140.46,72.51V60.54c0-1.34-0.48-2.3-1.43-2.87c-0.96-0.57-2.01-0.85-3.17-0.85h-0.87
		c-1.16,0-2.22,0.28-3.17,0.85c-0.95,0.57-1.43,1.52-1.43,2.87v6.24c0,1.97,0.84,3.73,2.52,5.26c1.68,1.53,3.51,3.02,5.48,4.47
		c1.97,1.45,3.8,2.94,5.48,4.47c1.68,1.53,2.52,3.31,2.52,5.32v7.12c0,1.01-0.3,1.88-0.89,2.61c-0.59,0.74-1.35,1.33-2.28,1.8
		c-0.93,0.46-1.99,0.8-3.17,1.01c-1.18,0.21-2.41,0.31-3.67,0.31h-1.77c-1.19,0-2.39-0.11-3.61-0.31s-2.32-0.55-3.3-1.01
		c-0.97-0.46-1.75-1.06-2.34-1.8c-0.59-0.73-0.89-1.61-0.89-2.61V81.02h5.42v11.97c0,1.34,0.52,2.3,1.56,2.87
		c1.04,0.57,2.14,0.85,3.3,0.85h0.87c1.16,0,2.26-0.28,3.3-0.85c1.04-0.57,1.56-1.52,1.56-2.87v-6.3c0-1.3-0.4-2.5-1.2-3.59
		c-0.8-1.09-1.79-2.13-2.96-3.12c-1.18-0.99-2.46-1.95-3.84-2.9c-1.39-0.94-2.67-1.92-3.84-2.93c-1.18-1.01-2.16-2.08-2.96-3.21
		c-0.8-1.13-1.2-2.37-1.2-3.72V60.1c0-1.01,0.3-1.88,0.89-2.61c0.59-0.73,1.35-1.33,2.28-1.8c0.93-0.46,2.01-0.8,3.23-1.01
		c1.22-0.21,2.43-0.31,3.61-0.31h1.39c1.18,0,2.36,0.11,3.55,0.31c1.18,0.21,2.26,0.55,3.23,1.01c0.97,0.46,1.75,1.06,2.34,1.8
		c0.59,0.74,0.89,1.61,0.89,2.61v12.41H140.46z"/>
	<path class="st1" d="M164.15,99.16c-1.18,0-2.35-0.11-3.53-0.31c-1.18-0.21-2.25-0.55-3.21-1.01c-0.97-0.46-1.74-1.06-2.33-1.8
		c-0.59-0.73-0.88-1.61-0.88-2.61V54.75h5.8v38.24c0,1.34,0.48,2.3,1.45,2.87c0.96,0.57,2.04,0.85,3.21,0.85h0.88
		c1.18,0,2.25-0.28,3.21-0.85c0.96-0.57,1.45-1.52,1.45-2.87V54.75h5.8v38.68c0,1.01-0.29,1.88-0.88,2.61
		c-0.59,0.74-1.34,1.33-2.27,1.8c-0.93,0.46-1.97,0.8-3.15,1.01c-1.18,0.21-2.39,0.31-3.65,0.31H164.15z"/>
</g>
</svg>
